<svg xmlns="http://www.w3.org/2000/svg" xmlns:xlink="http://www.w3.org/1999/xlink" width="50" zoomAndPan="magnify" viewBox="0 0 37.5 37.499999" height="50" preserveAspectRatio="xMidYMid meet" version="1.0"><defs><clipPath id="ad9f9e0078"><path d="M 3.699219 3.699219 L 33.304688 3.699219 L 33.304688 33.304688 L 3.699219 33.304688 Z M 3.699219 3.699219 " clip-rule="nonzero"/></clipPath><clipPath id="73a4466ee1"><path d="M 18.503906 3.699219 C 10.328125 3.699219 3.699219 10.328125 3.699219 18.503906 C 3.699219 26.679688 10.328125 33.304688 18.503906 33.304688 C 26.679688 33.304688 33.304688 26.679688 33.304688 18.503906 C 33.304688 10.328125 26.679688 3.699219 18.503906 3.699219 Z M 18.503906 3.699219 " clip-rule="nonzero"/></clipPath><clipPath id="8c10236e64"><path d="M 10 9.289062 L 27 9.289062 L 27 27.792969 L 10 27.792969 Z M 10 9.289062 " clip-rule="nonzero"/></clipPath></defs><g clip-path="url(#ad9f9e0078)"><g clip-path="url(#73a4466ee1)"><path fill="#1b1b1f" d="M 3.699219 3.699219 L 33.304688 3.699219 L 33.304688 33.304688 L 3.699219 33.304688 Z M 3.699219 3.699219 " fill-opacity="1" fill-rule="nonzero"/></g></g><g clip-path="url(#8c10236e64)"><path fill="#ffffff" d="M 25.441406 13.046875 L 19.625 9.59375 C 19.28125 9.390625 18.90625 9.289062 18.507812 9.289062 C 18.105469 9.289062 17.734375 9.390625 17.390625 9.59375 L 11.570312 13.046875 C 11.21875 13.257812 10.941406 13.542969 10.742188 13.898438 C 10.539062 14.253906 10.4375 14.636719 10.441406 15.046875 L 10.441406 21.953125 C 10.4375 22.363281 10.535156 22.742188 10.738281 23.101562 C 10.9375 23.457031 11.210938 23.742188 11.5625 23.953125 L 17.378906 27.40625 C 17.722656 27.609375 18.09375 27.710938 18.496094 27.710938 C 18.894531 27.710938 19.269531 27.609375 19.613281 27.40625 L 25.429688 23.953125 C 25.78125 23.742188 26.054688 23.457031 26.257812 23.101562 C 26.457031 22.742188 26.554688 22.363281 26.550781 21.953125 L 26.550781 15.046875 C 26.554688 14.640625 26.457031 14.257812 26.261719 13.902344 C 26.0625 13.542969 25.789062 13.261719 25.441406 13.046875 Z M 20.933594 23.832031 L 20.933594 24.328125 C 20.933594 24.390625 20.902344 24.445312 20.851562 24.480469 L 20.554688 24.648438 C 20.507812 24.671875 20.46875 24.648438 20.46875 24.582031 L 20.46875 24.09375 C 20.253906 24.203125 20.03125 24.222656 19.800781 24.160156 C 19.765625 24.136719 19.75 24.089844 19.765625 24.046875 L 19.871094 23.597656 C 19.882812 23.558594 19.902344 23.523438 19.929688 23.5 C 19.941406 23.492188 19.949219 23.484375 19.960938 23.476562 C 19.976562 23.472656 19.992188 23.472656 20.007812 23.476562 C 20.21875 23.535156 20.421875 23.511719 20.617188 23.402344 C 20.90625 23.257812 21.058594 23.027344 21.070312 22.703125 C 21.070312 22.453125 20.933594 22.347656 20.597656 22.34375 C 20.175781 22.34375 19.792969 22.265625 19.777344 21.640625 C 19.785156 21.101562 20.035156 20.59375 20.457031 20.257812 L 20.457031 19.757812 C 20.457031 19.699219 20.492188 19.640625 20.542969 19.601562 L 20.828125 19.421875 C 20.875 19.398438 20.914062 19.421875 20.914062 19.488281 L 20.914062 19.992188 C 21.089844 19.910156 21.277344 19.886719 21.46875 19.921875 C 21.511719 19.945312 21.527344 19.996094 21.507812 20.039062 L 21.40625 20.484375 C 21.398438 20.519531 21.382812 20.546875 21.355469 20.574219 C 21.347656 20.582031 21.339844 20.589844 21.328125 20.597656 C 21.316406 20.601562 21.300781 20.601562 21.285156 20.597656 C 21.09375 20.554688 20.917969 20.582031 20.75 20.683594 C 20.488281 20.796875 20.351562 20.996094 20.34375 21.28125 C 20.34375 21.507812 20.460938 21.578125 20.863281 21.585938 C 21.402344 21.585938 21.632812 21.828125 21.640625 22.371094 C 21.628906 22.9375 21.371094 23.46875 20.933594 23.828125 Z M 23.980469 22.996094 C 23.988281 23.039062 23.972656 23.082031 23.9375 23.109375 L 22.472656 24.003906 C 22.457031 24.015625 22.4375 24.015625 22.421875 24.007812 C 22.40625 23.996094 22.398438 23.976562 22.402344 23.960938 L 22.402344 23.582031 C 22.40625 23.539062 22.433594 23.503906 22.46875 23.488281 L 23.917969 22.621094 C 23.933594 22.609375 23.953125 22.605469 23.96875 22.617188 C 23.984375 22.625 23.992188 22.644531 23.988281 22.660156 L 23.988281 22.996094 Z M 25 14.503906 L 19.492188 17.90625 C 18.808594 18.3125 18.300781 18.753906 18.300781 19.582031 L 18.300781 26.363281 C 18.300781 26.859375 18.503906 27.167969 18.808594 27.273438 C 18.707031 27.292969 18.605469 27.300781 18.503906 27.304688 C 18.175781 27.300781 17.867188 27.21875 17.585938 27.050781 L 11.769531 23.597656 C 11.1875 23.25 10.84375 22.625 10.847656 21.953125 L 10.847656 15.046875 C 10.84375 14.375 11.1875 13.75 11.769531 13.402344 L 17.585938 9.949219 C 18.148438 9.613281 18.851562 9.613281 19.414062 9.949219 L 25.230469 13.402344 C 25.710938 13.691406 26.039062 14.179688 26.125 14.726562 C 25.9375 14.316406 25.503906 14.207031 24.996094 14.5 Z M 25 14.503906 " fill-opacity="1" fill-rule="evenodd"/></g></svg>