<svg xmlns="http://www.w3.org/2000/svg" xmlns:xlink="http://www.w3.org/1999/xlink" width="50" zoomAndPan="magnify" viewBox="0 0 37.5 37.499999" height="50" preserveAspectRatio="xMidYMid meet" version="1.0"><defs><clipPath id="c3db6fbb1f"><path d="M 3.699219 3.699219 L 33.304688 3.699219 L 33.304688 33.304688 L 3.699219 33.304688 Z M 3.699219 3.699219 " clip-rule="nonzero"/></clipPath><clipPath id="501b88eff0"><path d="M 18.503906 3.699219 C 10.328125 3.699219 3.699219 10.328125 3.699219 18.503906 C 3.699219 26.679688 10.328125 33.304688 18.503906 33.304688 C 26.679688 33.304688 33.304688 26.679688 33.304688 18.503906 C 33.304688 10.328125 26.679688 3.699219 18.503906 3.699219 Z M 18.503906 3.699219 " clip-rule="nonzero"/></clipPath><clipPath id="7cc8e90d78"><path d="M 9.105469 9.105469 L 27.605469 9.105469 L 27.605469 27.605469 L 9.105469 27.605469 Z M 9.105469 9.105469 " clip-rule="nonzero"/></clipPath></defs><g clip-path="url(#c3db6fbb1f)"><g clip-path="url(#501b88eff0)"><path fill="#563d7c" d="M 3.699219 3.699219 L 33.304688 3.699219 L 33.304688 33.304688 L 3.699219 33.304688 Z M 3.699219 3.699219 " fill-opacity="1" fill-rule="nonzero"/></g></g><g clip-path="url(#7cc8e90d78)"><path fill="#563d7c" d="M 9.105469 25.222656 C 9.105469 26.539062 10.171875 27.605469 11.488281 27.605469 L 25.222656 27.605469 C 26.539062 27.605469 27.605469 26.539062 27.605469 25.222656 L 27.605469 11.488281 C 27.605469 10.171875 26.539062 9.105469 25.222656 9.105469 L 11.488281 9.105469 C 10.171875 9.105469 9.105469 10.171875 9.105469 11.488281 Z M 9.105469 25.222656 " fill-opacity="1" fill-rule="nonzero"/></g><path fill="#ffffff" d="M 16.777344 17.289062 L 16.777344 14.667969 L 19.082031 14.667969 C 19.304688 14.667969 19.515625 14.6875 19.71875 14.722656 C 19.921875 14.757812 20.101562 14.824219 20.261719 14.917969 C 20.417969 15.011719 20.542969 15.144531 20.636719 15.3125 C 20.730469 15.480469 20.777344 15.691406 20.777344 15.953125 C 20.777344 16.425781 20.636719 16.765625 20.355469 16.976562 C 20.070312 17.183594 19.710938 17.289062 19.269531 17.289062 Z M 14.3125 12.753906 L 14.3125 23.957031 L 19.742188 23.957031 C 20.242188 23.957031 20.734375 23.894531 21.207031 23.769531 C 21.683594 23.644531 22.109375 23.449219 22.480469 23.1875 C 22.851562 22.925781 23.148438 22.589844 23.367188 22.175781 C 23.585938 21.761719 23.695312 21.273438 23.695312 20.707031 C 23.695312 20.007812 23.527344 19.410156 23.1875 18.914062 C 22.847656 18.414062 22.332031 18.066406 21.640625 17.867188 C 22.144531 17.628906 22.523438 17.320312 22.777344 16.941406 C 23.035156 16.566406 23.164062 16.097656 23.164062 15.53125 C 23.164062 15.007812 23.078125 14.570312 22.902344 14.214844 C 22.730469 13.855469 22.488281 13.570312 22.175781 13.359375 C 21.859375 13.144531 21.484375 12.988281 21.042969 12.894531 C 20.605469 12.800781 20.117188 12.753906 19.585938 12.753906 Z M 16.777344 22.042969 L 16.777344 18.96875 L 19.460938 18.96875 C 19.992188 18.96875 20.421875 19.089844 20.746094 19.335938 C 21.070312 19.582031 21.234375 19.992188 21.234375 20.566406 C 21.234375 20.859375 21.183594 21.101562 21.082031 21.289062 C 20.984375 21.476562 20.851562 21.625 20.683594 21.738281 C 20.515625 21.847656 20.324219 21.925781 20.101562 21.972656 C 19.882812 22.019531 19.652344 22.042969 19.414062 22.042969 Z M 16.777344 22.042969 " fill-opacity="1" fill-rule="nonzero"/></svg>