<svg xmlns="http://www.w3.org/2000/svg" xmlns:xlink="http://www.w3.org/1999/xlink" width="50" zoomAndPan="magnify" viewBox="0 0 37.5 37.499999" height="50" preserveAspectRatio="xMidYMid meet" version="1.0"><defs><clipPath id="b6ea91339d"><path d="M 3.699219 3.699219 L 33.304688 3.699219 L 33.304688 33.304688 L 3.699219 33.304688 Z M 3.699219 3.699219 " clip-rule="nonzero"/></clipPath><clipPath id="e3781b2e1b"><path d="M 18.503906 3.699219 C 10.328125 3.699219 3.699219 10.328125 3.699219 18.503906 C 3.699219 26.679688 10.328125 33.304688 18.503906 33.304688 C 26.679688 33.304688 33.304688 26.679688 33.304688 18.503906 C 33.304688 10.328125 26.679688 3.699219 18.503906 3.699219 Z M 18.503906 3.699219 " clip-rule="nonzero"/></clipPath><clipPath id="ad1ce41242"><path d="M 9.324219 9.324219 L 27.828125 9.324219 L 27.828125 27.828125 L 9.324219 27.828125 Z M 9.324219 9.324219 " clip-rule="nonzero"/></clipPath></defs><g clip-path="url(#b6ea91339d)"><g clip-path="url(#e3781b2e1b)"><path fill="#f03c2e" d="M 3.699219 3.699219 L 33.304688 3.699219 L 33.304688 33.304688 L 3.699219 33.304688 Z M 3.699219 3.699219 " fill-opacity="1" fill-rule="nonzero"/></g></g><g clip-path="url(#ad1ce41242)"><path fill="#ffffff" d="M 27.332031 17.683594 L 19.320312 9.671875 C 19.207031 9.5625 19.082031 9.476562 18.9375 9.414062 C 18.792969 9.355469 18.640625 9.324219 18.484375 9.324219 C 18.328125 9.324219 18.175781 9.355469 18.03125 9.414062 C 17.886719 9.476562 17.757812 9.5625 17.648438 9.671875 L 15.984375 11.335938 L 18.09375 13.445312 C 18.585938 13.273438 19.148438 13.390625 19.539062 13.78125 C 19.730469 13.972656 19.855469 14.199219 19.914062 14.460938 C 19.976562 14.722656 19.960938 14.980469 19.871094 15.234375 L 21.90625 17.269531 C 22.398438 17.101562 22.96875 17.210938 23.359375 17.601562 C 23.492188 17.734375 23.59375 17.886719 23.664062 18.058594 C 23.738281 18.230469 23.773438 18.410156 23.773438 18.597656 C 23.773438 18.785156 23.738281 18.964844 23.664062 19.136719 C 23.59375 19.308594 23.492188 19.460938 23.359375 19.59375 C 23.226562 19.726562 23.074219 19.828125 22.902344 19.898438 C 22.730469 19.96875 22.550781 20.003906 22.363281 20.003906 C 22.179688 20.003906 22 19.96875 21.828125 19.898438 C 21.65625 19.828125 21.503906 19.722656 21.371094 19.59375 C 20.957031 19.179688 20.855469 18.570312 21.0625 18.0625 L 19.167969 16.164062 L 19.167969 21.15625 C 19.304688 21.226562 19.429688 21.316406 19.539062 21.425781 C 19.671875 21.554688 19.773438 21.707031 19.84375 21.878906 C 19.914062 22.054688 19.953125 22.230469 19.953125 22.417969 C 19.953125 22.605469 19.914062 22.785156 19.84375 22.957031 C 19.773438 23.128906 19.671875 23.28125 19.539062 23.414062 C 19.40625 23.546875 19.253906 23.648438 19.082031 23.71875 C 18.910156 23.789062 18.730469 23.824219 18.546875 23.824219 C 18.359375 23.824219 18.179688 23.789062 18.007812 23.71875 C 17.835938 23.648438 17.683594 23.546875 17.550781 23.414062 C 17.417969 23.28125 17.316406 23.128906 17.246094 22.957031 C 17.175781 22.785156 17.136719 22.605469 17.136719 22.417969 C 17.136719 22.230469 17.175781 22.054688 17.246094 21.878906 C 17.316406 21.707031 17.417969 21.554688 17.550781 21.425781 C 17.6875 21.289062 17.835938 21.1875 18.011719 21.117188 L 18.011719 16.078125 C 17.84375 16.007812 17.6875 15.90625 17.550781 15.773438 C 17.347656 15.570312 17.21875 15.328125 17.164062 15.050781 C 17.109375 14.769531 17.136719 14.496094 17.246094 14.234375 L 15.164062 12.152344 L 9.671875 17.640625 C 9.5625 17.753906 9.476562 17.878906 9.414062 18.023438 C 9.355469 18.171875 9.324219 18.320312 9.324219 18.476562 C 9.324219 18.632812 9.355469 18.785156 9.414062 18.929688 C 9.476562 19.074219 9.5625 19.203125 9.671875 19.3125 L 17.683594 27.324219 C 17.796875 27.4375 17.921875 27.523438 18.066406 27.582031 C 18.214844 27.640625 18.363281 27.671875 18.519531 27.671875 C 18.675781 27.671875 18.828125 27.640625 18.972656 27.582031 C 19.117188 27.523438 19.246094 27.4375 19.355469 27.324219 L 27.332031 19.363281 C 27.441406 19.25 27.527344 19.125 27.589844 18.980469 C 27.648438 18.835938 27.679688 18.683594 27.679688 18.527344 C 27.679688 18.371094 27.648438 18.21875 27.589844 18.074219 C 27.527344 17.929688 27.441406 17.800781 27.332031 17.691406 " fill-opacity="1" fill-rule="nonzero"/></g></svg>