<svg xmlns="http://www.w3.org/2000/svg" xmlns:xlink="http://www.w3.org/1999/xlink" width="50" zoomAndPan="magnify" viewBox="0 0 37.5 37.499999" height="50" preserveAspectRatio="xMidYMid meet" version="1.0"><defs><g/><clipPath id="47940dcf43"><path d="M 3.699219 3.699219 L 33.304688 3.699219 L 33.304688 33.304688 L 3.699219 33.304688 Z M 3.699219 3.699219 " clip-rule="nonzero"/></clipPath><clipPath id="5ed2e4ed92"><path d="M 18.503906 3.699219 C 10.328125 3.699219 3.699219 10.328125 3.699219 18.503906 C 3.699219 26.679688 10.328125 33.304688 18.503906 33.304688 C 26.679688 33.304688 33.304688 26.679688 33.304688 18.503906 C 33.304688 10.328125 26.679688 3.699219 18.503906 3.699219 Z M 18.503906 3.699219 " clip-rule="nonzero"/></clipPath></defs><g clip-path="url(#47940dcf43)"><g clip-path="url(#5ed2e4ed92)"><path fill="#efda4f" d="M 3.699219 3.699219 L 33.304688 3.699219 L 33.304688 33.304688 L 3.699219 33.304688 Z M 3.699219 3.699219 " fill-opacity="1" fill-rule="nonzero"/></g></g><g fill="#323330" fill-opacity="1"><g transform="translate(9.271145, 23.219118)"><g><path d="M 7.765625 -10.859375 L 7.765625 -3.46875 C 7.765625 -2.320312 7.441406 -1.4375 6.796875 -0.8125 C 6.148438 -0.195312 5.28125 0.109375 4.1875 0.109375 C 3.039062 0.109375 2.125 -0.210938 1.4375 -0.859375 C 0.75 -1.515625 0.40625 -2.441406 0.40625 -3.640625 L 3.03125 -3.640625 C 3.03125 -3.179688 3.125 -2.835938 3.3125 -2.609375 C 3.5 -2.378906 3.765625 -2.265625 4.109375 -2.265625 C 4.429688 -2.265625 4.679688 -2.363281 4.859375 -2.5625 C 5.035156 -2.769531 5.125 -3.070312 5.125 -3.46875 L 5.125 -10.859375 Z M 7.765625 -10.859375 "/></g></g></g><g fill="#323330" fill-opacity="1"><g transform="translate(18.215053, 23.219118)"><g><path d="M 4.890625 0.109375 C 4.097656 0.109375 3.382812 -0.0195312 2.75 -0.28125 C 2.125 -0.539062 1.625 -0.921875 1.25 -1.421875 C 0.875 -1.929688 0.675781 -2.539062 0.65625 -3.25 L 3.46875 -3.25 C 3.507812 -2.84375 3.644531 -2.535156 3.875 -2.328125 C 4.113281 -2.117188 4.425781 -2.015625 4.8125 -2.015625 C 5.207031 -2.015625 5.515625 -2.101562 5.734375 -2.28125 C 5.960938 -2.457031 6.078125 -2.707031 6.078125 -3.03125 C 6.078125 -3.300781 5.984375 -3.519531 5.796875 -3.6875 C 5.617188 -3.863281 5.398438 -4.007812 5.140625 -4.125 C 4.878906 -4.238281 4.503906 -4.367188 4.015625 -4.515625 C 3.316406 -4.734375 2.742188 -4.945312 2.296875 -5.15625 C 1.859375 -5.375 1.476562 -5.695312 1.15625 -6.125 C 0.84375 -6.550781 0.6875 -7.101562 0.6875 -7.78125 C 0.6875 -8.789062 1.050781 -9.582031 1.78125 -10.15625 C 2.507812 -10.726562 3.460938 -11.015625 4.640625 -11.015625 C 5.835938 -11.015625 6.800781 -10.726562 7.53125 -10.15625 C 8.257812 -9.582031 8.648438 -8.785156 8.703125 -7.765625 L 5.84375 -7.765625 C 5.820312 -8.117188 5.691406 -8.394531 5.453125 -8.59375 C 5.222656 -8.789062 4.921875 -8.890625 4.546875 -8.890625 C 4.222656 -8.890625 3.960938 -8.804688 3.765625 -8.640625 C 3.578125 -8.472656 3.484375 -8.226562 3.484375 -7.90625 C 3.484375 -7.550781 3.644531 -7.273438 3.96875 -7.078125 C 4.300781 -6.890625 4.816406 -6.679688 5.515625 -6.453125 C 6.222656 -6.210938 6.796875 -5.984375 7.234375 -5.765625 C 7.671875 -5.546875 8.046875 -5.226562 8.359375 -4.8125 C 8.679688 -4.40625 8.84375 -3.878906 8.84375 -3.234375 C 8.84375 -2.617188 8.6875 -2.054688 8.375 -1.546875 C 8.0625 -1.035156 7.601562 -0.628906 7 -0.328125 C 6.40625 -0.0351562 5.703125 0.109375 4.890625 0.109375 Z M 4.890625 0.109375 "/></g></g></g></svg>