<svg xmlns="http://www.w3.org/2000/svg" xmlns:xlink="http://www.w3.org/1999/xlink" width="50" zoomAndPan="magnify" viewBox="0 0 37.5 37.499999" height="50" preserveAspectRatio="xMidYMid meet" version="1.0"><defs><clipPath id="0ad7dd5e77"><path d="M 3.699219 3.699219 L 33.304688 3.699219 L 33.304688 33.304688 L 3.699219 33.304688 Z M 3.699219 3.699219 " clip-rule="nonzero"/></clipPath><clipPath id="cfdf200600"><path d="M 18.503906 3.699219 C 10.328125 3.699219 3.699219 10.328125 3.699219 18.503906 C 3.699219 26.679688 10.328125 33.304688 18.503906 33.304688 C 26.679688 33.304688 33.304688 26.679688 33.304688 18.503906 C 33.304688 10.328125 26.679688 3.699219 18.503906 3.699219 Z M 18.503906 3.699219 " clip-rule="nonzero"/></clipPath><clipPath id="284ad4d285"><path d="M 9.1875 10 L 27.691406 10 L 27.691406 26.90625 L 9.1875 26.90625 Z M 9.1875 10 " clip-rule="nonzero"/></clipPath></defs><g clip-path="url(#0ad7dd5e77)"><g clip-path="url(#cfdf200600)"><path fill="#20242b" d="M 3.699219 3.699219 L 33.304688 3.699219 L 33.304688 33.304688 L 3.699219 33.304688 Z M 3.699219 3.699219 " fill-opacity="1" fill-rule="nonzero"/></g></g><g clip-path="url(#284ad4d285)"><path fill="#00d8ff" d="M 24.390625 15.523438 C 24.199219 15.457031 24 15.394531 23.796875 15.335938 C 23.828125 15.199219 23.859375 15.066406 23.886719 14.933594 C 24.335938 12.761719 24.042969 11.011719 23.039062 10.4375 C 22.074219 9.882812 20.5 10.460938 18.910156 11.835938 C 18.757812 11.96875 18.601562 12.109375 18.449219 12.253906 C 18.347656 12.15625 18.246094 12.0625 18.144531 11.972656 C 16.476562 10.503906 14.804688 9.882812 13.800781 10.460938 C 12.839844 11.011719 12.554688 12.65625 12.957031 14.714844 C 12.996094 14.914062 13.042969 15.117188 13.09375 15.324219 C 12.859375 15.390625 12.628906 15.460938 12.410156 15.539062 C 10.457031 16.214844 9.207031 17.277344 9.207031 18.378906 C 9.207031 19.515625 10.546875 20.65625 12.585938 21.347656 C 12.746094 21.402344 12.914062 21.457031 13.085938 21.503906 C 13.027344 21.726562 12.980469 21.945312 12.9375 22.160156 C 12.554688 24.183594 12.855469 25.789062 13.8125 26.335938 C 14.804688 26.90625 16.46875 26.320312 18.089844 24.914062 C 18.21875 24.804688 18.347656 24.683594 18.476562 24.5625 C 18.640625 24.71875 18.808594 24.871094 18.972656 25.015625 C 20.542969 26.355469 22.09375 26.898438 23.050781 26.347656 C 24.042969 25.777344 24.367188 24.050781 23.945312 21.953125 C 23.914062 21.792969 23.878906 21.628906 23.835938 21.460938 C 23.953125 21.429688 24.066406 21.390625 24.179688 21.355469 C 26.296875 20.660156 27.675781 19.53125 27.675781 18.378906 C 27.675781 17.273438 26.386719 16.203125 24.390625 15.523438 Z M 23.933594 20.613281 C 23.832031 20.644531 23.726562 20.675781 23.621094 20.707031 C 23.386719 19.972656 23.074219 19.191406 22.6875 18.382812 C 23.054688 17.59375 23.359375 16.820312 23.585938 16.089844 C 23.773438 16.144531 23.957031 16.203125 24.132812 16.261719 C 25.84375 16.847656 26.886719 17.710938 26.886719 18.378906 C 26.886719 19.089844 25.757812 20.007812 23.933594 20.613281 Z M 23.171875 22.105469 C 23.359375 23.03125 23.382812 23.871094 23.261719 24.527344 C 23.152344 25.117188 22.929688 25.511719 22.65625 25.667969 C 22.074219 26.003906 20.832031 25.566406 19.488281 24.417969 C 19.335938 24.289062 19.179688 24.148438 19.023438 24 C 19.542969 23.433594 20.066406 22.773438 20.574219 22.042969 C 21.464844 21.964844 22.308594 21.835938 23.074219 21.660156 C 23.109375 21.8125 23.144531 21.960938 23.171875 22.105469 Z M 15.503906 25.609375 C 14.933594 25.808594 14.484375 25.816406 14.207031 25.660156 C 13.625 25.324219 13.382812 24.035156 13.714844 22.304688 C 13.753906 22.109375 13.796875 21.90625 13.847656 21.695312 C 14.605469 21.863281 15.441406 21.984375 16.335938 22.054688 C 16.847656 22.769531 17.382812 23.425781 17.921875 24 C 17.804688 24.113281 17.6875 24.222656 17.570312 24.324219 C 16.855469 24.945312 16.136719 25.386719 15.503906 25.609375 Z M 12.839844 20.605469 C 11.941406 20.300781 11.195312 19.902344 10.6875 19.46875 C 10.226562 19.078125 9.996094 18.691406 9.996094 18.378906 C 9.996094 17.710938 11 16.859375 12.671875 16.277344 C 12.875 16.207031 13.085938 16.140625 13.308594 16.078125 C 13.539062 16.828125 13.839844 17.609375 14.207031 18.398438 C 13.835938 19.199219 13.53125 19.992188 13.296875 20.75 C 13.140625 20.703125 12.988281 20.65625 12.839844 20.605469 Z M 13.734375 14.566406 C 13.386719 12.800781 13.617188 11.472656 14.195312 11.136719 C 14.8125 10.78125 16.179688 11.289062 17.621094 12.5625 C 17.710938 12.640625 17.804688 12.726562 17.898438 12.816406 C 17.359375 13.386719 16.832031 14.039062 16.324219 14.75 C 15.457031 14.832031 14.625 14.957031 13.859375 15.128906 C 13.8125 14.9375 13.769531 14.75 13.734375 14.566406 Z M 21.699219 16.519531 C 21.515625 16.207031 21.328125 15.902344 21.136719 15.601562 C 21.726562 15.675781 22.289062 15.773438 22.820312 15.894531 C 22.660156 16.402344 22.464844 16.933594 22.230469 17.476562 C 22.0625 17.160156 21.882812 16.839844 21.699219 16.519531 Z M 18.449219 13.375 C 18.8125 13.765625 19.179688 14.203125 19.535156 14.679688 C 19.175781 14.664062 18.808594 14.652344 18.441406 14.652344 C 18.074219 14.652344 17.714844 14.664062 17.355469 14.679688 C 17.710938 14.207031 18.082031 13.773438 18.449219 13.375 Z M 15.179688 16.527344 C 15 16.839844 14.824219 17.15625 14.660156 17.476562 C 14.429688 16.933594 14.234375 16.402344 14.074219 15.886719 C 14.601562 15.769531 15.160156 15.671875 15.746094 15.601562 C 15.554688 15.902344 15.363281 16.210938 15.179688 16.527344 Z M 15.765625 21.210938 C 15.160156 21.144531 14.589844 21.054688 14.0625 20.941406 C 14.226562 20.417969 14.425781 19.875 14.660156 19.320312 C 14.824219 19.636719 15 19.953125 15.183594 20.269531 C 15.371094 20.589844 15.566406 20.90625 15.765625 21.210938 Z M 18.472656 23.4375 C 18.097656 23.035156 17.726562 22.59375 17.359375 22.117188 C 17.714844 22.128906 18.074219 22.136719 18.441406 22.136719 C 18.816406 22.136719 19.191406 22.128906 19.554688 22.113281 C 19.195312 22.597656 18.832031 23.042969 18.472656 23.4375 Z M 22.238281 19.292969 C 22.484375 19.851562 22.691406 20.390625 22.855469 20.90625 C 22.320312 21.027344 21.742188 21.125 21.132812 21.199219 C 21.328125 20.894531 21.515625 20.585938 21.703125 20.265625 C 21.890625 19.941406 22.066406 19.613281 22.238281 19.292969 Z M 21.019531 19.871094 C 20.730469 20.371094 20.433594 20.84375 20.132812 21.292969 C 19.585938 21.332031 19.019531 21.351562 18.441406 21.351562 C 17.867188 21.351562 17.308594 21.335938 16.769531 21.300781 C 16.457031 20.84375 16.152344 20.371094 15.867188 19.875 C 15.582031 19.386719 15.316406 18.890625 15.078125 18.398438 C 15.316406 17.902344 15.578125 17.40625 15.863281 16.917969 C 16.148438 16.425781 16.449219 15.953125 16.757812 15.5 C 17.308594 15.460938 17.871094 15.4375 18.441406 15.4375 C 19.011719 15.4375 19.578125 15.460938 20.125 15.5 C 20.429688 15.949219 20.730469 16.421875 21.015625 16.914062 C 21.304688 17.410156 21.570312 17.902344 21.8125 18.386719 C 21.570312 18.878906 21.304688 19.375 21.019531 19.871094 Z M 22.644531 11.113281 C 23.265625 11.46875 23.503906 12.898438 23.117188 14.773438 C 23.089844 14.894531 23.0625 15.015625 23.03125 15.140625 C 22.265625 14.964844 21.433594 14.832031 20.5625 14.75 C 20.054688 14.03125 19.53125 13.378906 19.003906 12.8125 C 19.144531 12.679688 19.285156 12.550781 19.425781 12.425781 C 20.789062 11.246094 22.066406 10.78125 22.644531 11.113281 Z M 18.441406 16.738281 C 19.351562 16.738281 20.089844 17.472656 20.089844 18.378906 C 20.089844 19.285156 19.351562 20.019531 18.441406 20.019531 C 17.53125 20.019531 16.792969 19.285156 16.792969 18.378906 C 16.792969 17.472656 17.53125 16.738281 18.441406 16.738281 Z M 18.441406 16.738281 " fill-opacity="1" fill-rule="nonzero"/></g></svg>