<svg xmlns="http://www.w3.org/2000/svg" xmlns:xlink="http://www.w3.org/1999/xlink" width="50" zoomAndPan="magnify" viewBox="0 0 37.5 37.499999" height="50" preserveAspectRatio="xMidYMid meet" version="1.0"><defs><clipPath id="cf20b69d19"><path d="M 3.699219 3.699219 L 33.304688 3.699219 L 33.304688 33.304688 L 3.699219 33.304688 Z M 3.699219 3.699219 " clip-rule="nonzero"/></clipPath><clipPath id="62be2c80b3"><path d="M 18.503906 3.699219 C 10.328125 3.699219 3.699219 10.328125 3.699219 18.503906 C 3.699219 26.679688 10.328125 33.304688 18.503906 33.304688 C 26.679688 33.304688 33.304688 26.679688 33.304688 18.503906 C 33.304688 10.328125 26.679688 3.699219 18.503906 3.699219 Z M 18.503906 3.699219 " clip-rule="nonzero"/></clipPath></defs><g clip-path="url(#cf20b69d19)"><g clip-path="url(#62be2c80b3)"><path fill="#3f0f3f" d="M 3.699219 3.699219 L 33.304688 3.699219 L 33.304688 33.304688 L 3.699219 33.304688 Z M 3.699219 3.699219 " fill-opacity="1" fill-rule="nonzero"/></g></g><path fill="#3f0f3f" d="M 7.226562 11.453125 C 7.226562 9.113281 9.113281 7.226562 11.453125 7.226562 L 25.550781 7.226562 C 27.890625 7.226562 29.78125 9.113281 29.78125 11.453125 L 29.78125 25.550781 C 29.78125 27.890625 27.890625 29.78125 25.550781 29.78125 L 11.453125 29.78125 C 9.113281 29.78125 7.226562 27.890625 7.226562 25.550781 Z M 7.226562 11.453125 " fill-opacity="1" fill-rule="evenodd"/><path fill="#e01e5a" d="M 14.554688 20.710938 C 14.554688 19.800781 15.308594 19.066406 16.246094 19.066406 C 17.183594 19.066406 17.9375 19.800781 17.9375 20.710938 L 17.9375 24.753906 C 17.9375 25.664062 17.183594 26.398438 16.246094 26.398438 C 15.308594 26.398438 14.554688 25.664062 14.554688 24.753906 Z M 14.554688 20.710938 " fill-opacity="1" fill-rule="evenodd"/><path fill="#ecb22d" d="M 20.710938 22.449219 C 19.800781 22.449219 19.066406 21.695312 19.066406 20.757812 C 19.066406 19.820312 19.800781 19.066406 20.710938 19.066406 L 24.753906 19.066406 C 25.664062 19.066406 26.398438 19.820312 26.398438 20.757812 C 26.398438 21.695312 25.664062 22.449219 24.753906 22.449219 Z M 20.710938 22.449219 " fill-opacity="1" fill-rule="evenodd"/><path fill="#2fb67c" d="M 19.066406 12.25 C 19.066406 11.339844 19.820312 10.609375 20.757812 10.609375 C 21.695312 10.609375 22.449219 11.339844 22.449219 12.25 L 22.449219 16.296875 C 22.449219 17.207031 21.695312 17.9375 20.757812 17.9375 C 19.820312 17.9375 19.066406 17.207031 19.066406 16.296875 Z M 19.066406 12.25 " fill-opacity="1" fill-rule="evenodd"/><path fill="#36c5f1" d="M 12.25 17.9375 C 11.339844 17.9375 10.609375 17.183594 10.609375 16.246094 C 10.609375 15.308594 11.339844 14.554688 12.25 14.554688 L 16.296875 14.554688 C 17.207031 14.554688 17.9375 15.308594 17.9375 16.246094 C 17.9375 17.183594 17.207031 17.9375 16.296875 17.9375 Z M 12.25 17.9375 " fill-opacity="1" fill-rule="evenodd"/><path fill="#ecb22d" d="M 19.066406 24.707031 C 19.066406 25.644531 19.820312 26.398438 20.757812 26.398438 C 21.695312 26.398438 22.449219 25.644531 22.449219 24.707031 C 22.449219 23.769531 21.695312 23.015625 20.757812 23.015625 L 19.066406 23.015625 Z M 19.066406 24.707031 " fill-opacity="1" fill-rule="evenodd"/><path fill="#2fb67c" d="M 24.707031 17.9375 L 23.015625 17.9375 L 23.015625 16.246094 C 23.015625 15.308594 23.769531 14.554688 24.707031 14.554688 C 25.644531 14.554688 26.398438 15.308594 26.398438 16.246094 C 26.398438 17.183594 25.644531 17.9375 24.707031 17.9375 Z M 24.707031 17.9375 " fill-opacity="1" fill-rule="evenodd"/><path fill="#e01e5a" d="M 12.300781 19.066406 L 13.992188 19.066406 L 13.992188 20.757812 C 13.992188 21.695312 13.238281 22.449219 12.300781 22.449219 C 11.363281 22.449219 10.609375 21.695312 10.609375 20.757812 C 10.609375 19.820312 11.363281 19.066406 12.300781 19.066406 Z M 12.300781 19.066406 " fill-opacity="1" fill-rule="evenodd"/><path fill="#36c5f1" d="M 17.9375 12.300781 L 17.9375 13.992188 L 16.246094 13.992188 C 15.308594 13.992188 14.554688 13.238281 14.554688 12.300781 C 14.554688 11.363281 15.308594 10.609375 16.246094 10.609375 C 17.183594 10.609375 17.9375 11.363281 17.9375 12.300781 Z M 17.9375 12.300781 " fill-opacity="1" fill-rule="evenodd"/></svg>