<svg xmlns="http://www.w3.org/2000/svg" xmlns:xlink="http://www.w3.org/1999/xlink" width="50" zoomAndPan="magnify" viewBox="0 0 37.5 37.499999" height="50" preserveAspectRatio="xMidYMid meet" version="1.0"><defs><clipPath id="e5969bec3e"><path d="M 3.699219 3.699219 L 33.304688 3.699219 L 33.304688 33.304688 L 3.699219 33.304688 Z M 3.699219 3.699219 " clip-rule="nonzero"/></clipPath><clipPath id="27a11d2583"><path d="M 18.503906 3.699219 C 10.328125 3.699219 3.699219 10.328125 3.699219 18.503906 C 3.699219 26.679688 10.328125 33.304688 18.503906 33.304688 C 26.679688 33.304688 33.304688 26.679688 33.304688 18.503906 C 33.304688 10.328125 26.679688 3.699219 18.503906 3.699219 Z M 18.503906 3.699219 " clip-rule="nonzero"/></clipPath><clipPath id="02667e6f9a"><path d="M 9.308594 12.972656 L 27.808594 12.972656 L 27.808594 24.074219 L 9.308594 24.074219 Z M 9.308594 12.972656 " clip-rule="nonzero"/></clipPath></defs><g clip-path="url(#e5969bec3e)"><g clip-path="url(#27a11d2583)"><path fill="#0f172a" d="M 3.699219 3.699219 L 33.304688 3.699219 L 33.304688 33.304688 L 3.699219 33.304688 Z M 3.699219 3.699219 " fill-opacity="1" fill-rule="nonzero"/></g></g><g clip-path="url(#02667e6f9a)"><path fill="#38bdf8" d="M 18.5 12.980469 C 16.046875 12.980469 14.519531 14.207031 13.902344 16.660156 C 14.824219 15.4375 15.898438 14.976562 17.121094 15.28125 C 17.820312 15.457031 18.324219 15.960938 18.878906 16.523438 C 19.777344 17.441406 20.800781 18.5 23.097656 18.5 C 25.554688 18.5 27.078125 17.277344 27.695312 14.820312 C 26.777344 16.042969 25.699219 16.503906 24.476562 16.199219 C 23.777344 16.027344 23.28125 15.519531 22.722656 14.960938 C 21.820312 14.039062 20.800781 12.980469 18.5 12.980469 Z M 13.902344 18.5 C 11.449219 18.5 9.921875 19.722656 9.304688 22.175781 C 10.226562 20.953125 11.300781 20.496094 12.523438 20.796875 C 13.222656 20.972656 13.71875 21.476562 14.28125 22.039062 C 15.179688 22.957031 16.203125 24.015625 18.5 24.015625 C 20.957031 24.015625 22.480469 22.792969 23.097656 20.339844 C 22.179688 21.5625 21.101562 22.019531 19.878906 21.71875 C 19.179688 21.542969 18.683594 21.035156 18.125 20.476562 C 17.222656 19.554688 16.203125 18.5 13.902344 18.5 Z M 13.902344 18.5 " fill-opacity="1" fill-rule="nonzero"/></g></svg>